<svg xmlns="http://www.w3.org/2000/svg" xmlns:xlink="http://www.w3.org/1999/xlink" width="500" zoomAndPan="magnify" viewBox="0 0 375 374.999991" height="500" preserveAspectRatio="xMidYMid meet" version="1.0"><defs><g/><clipPath id="id1"><path d="M 0 188 L 85.046875 188 L 85.046875 216 L 0 216 Z M 0 188 " clip-rule="nonzero"/></clipPath><clipPath id="id2"><path d="M 0 153.175781 L 85.046875 153.175781 L 85.046875 180 L 0 180 Z M 0 153.175781 " clip-rule="nonzero"/></clipPath><clipPath id="id3"><path d="M 0 225 L 85.046875 225 L 85.046875 251.96875 L 0 251.96875 Z M 0 225 " clip-rule="nonzero"/></clipPath></defs><g fill="#ffffff" fill-opacity="1"><g transform="translate(98.995742, 191.641483)"><g><path d="M 4.28125 0 L 4.28125 -41.09375 L 10.671875 -41.09375 L 15.703125 -27.171875 C 15.890625 -26.753906 16.054688 -26.269531 16.203125 -25.71875 C 16.359375 -25.164062 16.492188 -24.660156 16.609375 -24.203125 C 16.765625 -23.628906 16.914062 -23.078125 17.0625 -22.546875 L 17.40625 -22.546875 C 17.5625 -23.078125 17.710938 -23.628906 17.859375 -24.203125 C 18.015625 -24.660156 18.175781 -25.164062 18.34375 -25.71875 C 18.519531 -26.269531 18.679688 -26.753906 18.828125 -27.171875 L 23.578125 -41.09375 L 29.96875 -41.09375 L 29.96875 0 L 25.234375 0 L 25.234375 -28.828125 C 25.234375 -29.429688 25.238281 -30.113281 25.25 -30.875 C 25.269531 -31.632812 25.320312 -32.378906 25.40625 -33.109375 C 25.4375 -33.941406 25.472656 -34.773438 25.515625 -35.609375 L 25.171875 -35.609375 C 24.941406 -34.816406 24.710938 -34.039062 24.484375 -33.28125 C 24.296875 -32.59375 24.078125 -31.847656 23.828125 -31.046875 C 23.578125 -30.253906 23.335938 -29.515625 23.109375 -28.828125 L 19.578125 -18.265625 L 14.78125 -18.265625 L 11.25 -28.828125 C 11.019531 -29.546875 10.769531 -30.304688 10.5 -31.109375 C 10.238281 -31.910156 10.007812 -32.648438 9.8125 -33.328125 C 9.582031 -34.128906 9.351562 -34.910156 9.125 -35.671875 L 8.84375 -35.671875 C 8.882812 -34.835938 8.925781 -34 8.96875 -33.15625 C 8.96875 -32.476562 8.972656 -31.75 8.984375 -30.96875 C 9.003906 -30.1875 9.015625 -29.472656 9.015625 -28.828125 L 9.015625 0 Z M 4.28125 0 "/></g></g></g><g fill="#ffffff" fill-opacity="1"><g transform="translate(133.237893, 191.641483)"><g><path d="M 8.5625 -31.390625 L 15.75 -13.359375 C 16.09375 -12.484375 16.367188 -11.664062 16.578125 -10.90625 C 16.785156 -10.144531 16.945312 -9.476562 17.0625 -8.90625 C 17.21875 -8.175781 17.316406 -7.53125 17.359375 -6.96875 L 17.75 -6.96875 C 17.789062 -7.53125 17.882812 -8.15625 18.03125 -8.84375 C 18.144531 -9.457031 18.296875 -10.144531 18.484375 -10.90625 C 18.679688 -11.664062 18.929688 -12.484375 19.234375 -13.359375 L 25.859375 -31.390625 L 31.390625 -31.390625 L 16.15625 9.421875 L 10.671875 9.421875 L 15.015625 -2.28125 L 2.859375 -31.390625 Z M 8.5625 -31.390625 "/></g></g></g><g fill="#f7971e" fill-opacity="1"><g transform="translate(167.468394, 191.641483)"><g><path d="M 10.28125 -41.09375 L 10.28125 -23.75 L 23.96875 -23.75 L 23.96875 -41.09375 L 29.109375 -41.09375 L 29.109375 0 L 23.96875 0 L 23.96875 -19.0625 L 10.28125 -19.0625 L 10.28125 0 L 5.140625 0 L 5.140625 -41.09375 Z M 10.28125 -41.09375 "/></g></g></g><g fill="#f7971e" fill-opacity="1"><g transform="translate(201.710544, 191.641483)"><g><path d="M 17.125 0.578125 C 13.207031 0.578125 10.132812 -0.488281 7.90625 -2.625 C 5.675781 -4.757812 4.5625 -7.691406 4.5625 -11.421875 L 4.5625 -19.984375 C 4.5625 -23.710938 5.675781 -26.640625 7.90625 -28.765625 C 10.132812 -30.898438 13.207031 -31.96875 17.125 -31.96875 C 21.039062 -31.96875 24.113281 -30.898438 26.34375 -28.765625 C 28.570312 -26.640625 29.6875 -23.710938 29.6875 -19.984375 L 29.6875 -14.21875 L 9.703125 -14.21875 L 9.703125 -11.703125 C 9.703125 -9.304688 10.359375 -7.421875 11.671875 -6.046875 C 12.984375 -4.679688 14.800781 -4 17.125 -4 C 18.832031 -4 20.3125 -4.265625 21.5625 -4.796875 C 22.820312 -5.328125 23.757812 -6.109375 24.375 -7.140625 L 29.515625 -7.140625 C 28.859375 -4.734375 27.414062 -2.84375 25.1875 -1.46875 C 22.96875 -0.101562 20.28125 0.578125 17.125 0.578125 Z M 24.546875 -18.5 L 24.546875 -19.984375 C 24.546875 -22.335938 23.894531 -24.160156 22.59375 -25.453125 C 21.300781 -26.742188 19.476562 -27.390625 17.125 -27.390625 C 14.757812 -27.390625 12.929688 -26.742188 11.640625 -25.453125 C 10.347656 -24.160156 9.703125 -22.335938 9.703125 -19.984375 L 9.703125 -18.5 Z M 24.546875 -18.5 "/></g></g></g><g fill="#f7971e" fill-opacity="1"><g transform="translate(235.952695, 191.641483)"><g><path d="M 17.8125 -41.671875 L 17.8125 -9.125 C 17.8125 -7.71875 18.191406 -6.625 18.953125 -5.84375 C 19.710938 -5.070312 20.757812 -4.6875 22.09375 -4.6875 L 31.390625 -4.6875 L 31.390625 0 L 22.09375 0 C 19.15625 0 16.847656 -0.804688 15.171875 -2.421875 C 13.503906 -4.046875 12.671875 -6.28125 12.671875 -9.125 L 12.671875 -36.984375 L 2.28125 -36.984375 L 2.28125 -41.671875 Z M 17.8125 -41.671875 "/></g></g></g><g fill="#f7971e" fill-opacity="1"><g transform="translate(270.194846, 191.641483)"><g><path d="M 9.875 -31.390625 L 9.875 -25.96875 L 10.328125 -25.96875 C 10.828125 -27.875 11.835938 -29.347656 13.359375 -30.390625 C 14.878906 -31.441406 16.800781 -31.96875 19.125 -31.96875 C 20.71875 -31.96875 22.160156 -31.679688 23.453125 -31.109375 C 24.753906 -30.535156 25.859375 -29.722656 26.765625 -28.671875 C 27.679688 -27.628906 28.394531 -26.347656 28.90625 -24.828125 C 29.425781 -23.304688 29.6875 -21.59375 29.6875 -19.6875 L 29.6875 -11.703125 C 29.6875 -9.796875 29.425781 -8.082031 28.90625 -6.5625 C 28.394531 -5.039062 27.679688 -3.753906 26.765625 -2.703125 C 25.859375 -1.660156 24.753906 -0.851562 23.453125 -0.28125 C 22.160156 0.289062 20.71875 0.578125 19.125 0.578125 C 16.800781 0.578125 14.878906 0.0546875 13.359375 -0.984375 C 11.835938 -2.035156 10.828125 -3.515625 10.328125 -5.421875 L 9.875 -5.421875 C 9.914062 -4.773438 9.972656 -4.128906 10.046875 -3.484375 C 10.085938 -2.910156 10.113281 -2.316406 10.125 -1.703125 C 10.144531 -1.097656 10.15625 -0.53125 10.15625 0 L 10.15625 9.421875 L 5.015625 9.421875 L 5.015625 -31.390625 Z M 10.15625 -11.703125 C 10.15625 -9.304688 10.789062 -7.398438 12.0625 -5.984375 C 13.34375 -4.578125 15.050781 -3.875 17.1875 -3.875 C 19.46875 -3.875 21.265625 -4.578125 22.578125 -5.984375 C 23.890625 -7.398438 24.546875 -9.304688 24.546875 -11.703125 L 24.546875 -19.6875 C 24.546875 -22.164062 23.894531 -24.085938 22.59375 -25.453125 C 21.300781 -26.828125 19.5 -27.515625 17.1875 -27.515625 C 15.050781 -27.515625 13.34375 -26.804688 12.0625 -25.390625 C 10.789062 -23.984375 10.15625 -22.082031 10.15625 -19.6875 Z M 10.15625 -11.703125 "/></g></g></g><g fill="#f7971e" fill-opacity="1"><g transform="translate(304.436997, 191.641483)"><g><path d="M 17.125 0.578125 C 13.207031 0.578125 10.132812 -0.488281 7.90625 -2.625 C 5.675781 -4.757812 4.5625 -7.691406 4.5625 -11.421875 L 4.5625 -19.984375 C 4.5625 -23.710938 5.675781 -26.640625 7.90625 -28.765625 C 10.132812 -30.898438 13.207031 -31.96875 17.125 -31.96875 C 21.039062 -31.96875 24.113281 -30.898438 26.34375 -28.765625 C 28.570312 -26.640625 29.6875 -23.710938 29.6875 -19.984375 L 29.6875 -14.21875 L 9.703125 -14.21875 L 9.703125 -11.703125 C 9.703125 -9.304688 10.359375 -7.421875 11.671875 -6.046875 C 12.984375 -4.679688 14.800781 -4 17.125 -4 C 18.832031 -4 20.3125 -4.265625 21.5625 -4.796875 C 22.820312 -5.328125 23.757812 -6.109375 24.375 -7.140625 L 29.515625 -7.140625 C 28.859375 -4.734375 27.414062 -2.84375 25.1875 -1.46875 C 22.96875 -0.101562 20.28125 0.578125 17.125 0.578125 Z M 24.546875 -18.5 L 24.546875 -19.984375 C 24.546875 -22.335938 23.894531 -24.160156 22.59375 -25.453125 C 21.300781 -26.742188 19.476562 -27.390625 17.125 -27.390625 C 14.757812 -27.390625 12.929688 -26.742188 11.640625 -25.453125 C 10.347656 -24.160156 9.703125 -22.335938 9.703125 -19.984375 L 9.703125 -18.5 Z M 24.546875 -18.5 "/></g></g></g><g fill="#f7971e" fill-opacity="1"><g transform="translate(338.679147, 191.641483)"><g><path d="M 6.390625 -31.390625 L 11.25 -31.390625 L 11.25 -25.96875 L 11.703125 -25.96875 C 12.191406 -27.832031 13.21875 -29.296875 14.78125 -30.359375 C 16.34375 -31.429688 18.265625 -31.96875 20.546875 -31.96875 C 23.859375 -31.96875 26.457031 -30.929688 28.34375 -28.859375 C 30.226562 -26.785156 31.171875 -23.9375 31.171875 -20.3125 L 31.171875 -18.546875 L 26.03125 -18.546875 L 26.03125 -19.6875 C 26.03125 -22.164062 25.410156 -24.078125 24.171875 -25.421875 C 22.929688 -26.773438 21.171875 -27.453125 18.890625 -27.453125 C 16.648438 -27.453125 14.863281 -26.753906 13.53125 -25.359375 C 12.195312 -23.972656 11.53125 -22.082031 11.53125 -19.6875 L 11.53125 0 L 6.390625 0 Z M 6.390625 -31.390625 "/></g></g></g><g clip-path="url(#id1)"><path fill="#f7971e" d="M 80.988281 207.222656 C 55.335938 207.222656 29.683594 207.222656 4.03125 207.222656 C 5.371094 208.566406 6.714844 209.90625 8.054688 211.246094 C 8.054688 205.148438 8.054688 199.054688 8.054688 192.957031 C 6.714844 194.296875 5.371094 195.636719 4.03125 196.980469 C 29.683594 196.980469 55.335938 196.980469 80.988281 196.980469 C 79.648438 195.636719 78.304688 194.296875 76.960938 192.957031 C 76.960938 199.054688 76.960938 205.148438 76.960938 211.246094 C 76.960938 216.433594 85.015625 216.433594 85.015625 211.246094 C 85.015625 205.148438 85.015625 199.054688 85.015625 192.957031 C 85.015625 190.765625 83.183594 188.933594 80.988281 188.933594 C 55.335938 188.933594 29.683594 188.933594 4.03125 188.933594 C 1.835938 188.933594 0.00390625 190.765625 0.00390625 192.957031 C 0.00390625 199.054688 0.00390625 205.148438 0.00390625 211.246094 C 0.00390625 213.4375 1.835938 215.265625 4.03125 215.265625 C 29.683594 215.265625 55.335938 215.265625 80.988281 215.265625 C 86.183594 215.265625 86.183594 207.222656 80.988281 207.222656 Z M 80.988281 207.222656 " fill-opacity="1" fill-rule="nonzero"/></g><g clip-path="url(#id2)"><path fill="#f7971e" d="M 80.988281 171.464844 C 55.335938 171.464844 29.683594 171.464844 4.03125 171.464844 C 5.371094 172.808594 6.714844 174.148438 8.054688 175.488281 C 8.054688 169.390625 8.054688 163.296875 8.054688 157.199219 C 6.714844 158.539062 5.371094 159.878906 4.03125 161.222656 C 29.683594 161.222656 55.335938 161.222656 80.988281 161.222656 C 79.648438 159.878906 78.304688 158.539062 76.960938 157.199219 C 76.960938 163.296875 76.960938 169.390625 76.960938 175.488281 C 76.960938 180.675781 85.015625 180.675781 85.015625 175.488281 C 85.015625 169.390625 85.015625 163.296875 85.015625 157.199219 C 85.015625 155.007812 83.183594 153.175781 80.988281 153.175781 C 55.335938 153.175781 29.683594 153.175781 4.03125 153.175781 C 1.832031 153.175781 0.00390625 155.007812 0.00390625 157.199219 C 0.00390625 163.296875 0.00390625 169.390625 0.00390625 175.488281 C 0.00390625 177.679688 1.832031 179.511719 4.03125 179.511719 C 29.683594 179.511719 55.335938 179.511719 80.988281 179.511719 C 86.183594 179.507812 86.183594 171.464844 80.988281 171.464844 Z M 80.988281 171.464844 " fill-opacity="1" fill-rule="nonzero"/></g><g clip-path="url(#id3)"><path fill="#f7971e" d="M 80.988281 243.925781 C 55.335938 243.925781 29.683594 243.925781 4.03125 243.925781 C 5.371094 245.265625 6.714844 246.609375 8.054688 247.949219 C 8.054688 241.851562 8.054688 235.753906 8.054688 229.660156 C 6.714844 231 5.371094 232.339844 4.03125 233.679688 C 29.683594 233.679688 55.335938 233.679688 80.988281 233.679688 C 79.648438 232.339844 78.304688 231 76.960938 229.660156 C 76.960938 235.753906 76.960938 241.851562 76.960938 247.949219 C 76.960938 253.136719 85.015625 253.136719 85.015625 247.949219 C 85.015625 241.851562 85.015625 235.753906 85.015625 229.660156 C 85.015625 227.46875 83.183594 225.636719 80.988281 225.636719 C 55.335938 225.636719 29.683594 225.636719 4.03125 225.636719 C 1.835938 225.636719 0.00390625 227.46875 0.00390625 229.660156 C 0.00390625 235.753906 0.00390625 241.851562 0.00390625 247.949219 C 0.00390625 250.140625 1.835938 251.96875 4.03125 251.96875 C 29.683594 251.96875 55.335938 251.96875 80.988281 251.96875 C 86.183594 251.96875 86.183594 243.925781 80.988281 243.925781 Z M 80.988281 243.925781 " fill-opacity="1" fill-rule="nonzero"/></g><g fill="#edd8a6" fill-opacity="1"><g transform="translate(112.240799, 228.053546)"><g><path d="M 0.578125 -2.734375 C 0.597656 -2.296875 0.710938 -1.894531 0.921875 -1.53125 C 1.128906 -1.164062 1.414062 -0.859375 1.78125 -0.609375 C 2.144531 -0.359375 2.578125 -0.160156 3.078125 -0.015625 C 3.578125 0.117188 4.117188 0.1875 4.703125 0.1875 C 5.296875 0.1875 5.832031 0.113281 6.3125 -0.03125 C 6.789062 -0.175781 7.203125 -0.378906 7.546875 -0.640625 C 7.890625 -0.910156 8.148438 -1.238281 8.328125 -1.625 C 8.515625 -2.007812 8.609375 -2.429688 8.609375 -2.890625 C 8.609375 -3.535156 8.445312 -4.0625 8.125 -4.46875 C 7.8125 -4.875 7.414062 -5.210938 6.9375 -5.484375 C 6.457031 -5.753906 5.9375 -5.984375 5.375 -6.171875 C 4.8125 -6.359375 4.289062 -6.550781 3.8125 -6.75 C 3.332031 -6.957031 2.929688 -7.195312 2.609375 -7.46875 C 2.296875 -7.738281 2.140625 -8.09375 2.140625 -8.53125 C 2.140625 -8.78125 2.191406 -9.015625 2.296875 -9.234375 C 2.398438 -9.453125 2.554688 -9.640625 2.765625 -9.796875 C 2.984375 -9.960938 3.242188 -10.09375 3.546875 -10.1875 C 3.859375 -10.28125 4.21875 -10.328125 4.625 -10.328125 C 5.289062 -10.328125 5.859375 -10.1875 6.328125 -9.90625 C 6.796875 -9.625 7.070312 -9.175781 7.15625 -8.5625 L 8.21875 -8.5625 C 8.15625 -8.945312 8.015625 -9.289062 7.796875 -9.59375 C 7.578125 -9.90625 7.300781 -10.164062 6.96875 -10.375 C 6.644531 -10.582031 6.273438 -10.738281 5.859375 -10.84375 C 5.441406 -10.957031 5.003906 -11.015625 4.546875 -11.015625 C 4.078125 -11.015625 3.625 -10.953125 3.1875 -10.828125 C 2.757812 -10.703125 2.382812 -10.519531 2.0625 -10.28125 C 1.738281 -10.050781 1.476562 -9.753906 1.28125 -9.390625 C 1.09375 -9.023438 1 -8.613281 1 -8.15625 C 1 -7.539062 1.15625 -7.046875 1.46875 -6.671875 C 1.78125 -6.304688 2.171875 -6 2.640625 -5.75 C 3.109375 -5.507812 3.613281 -5.300781 4.15625 -5.125 C 4.707031 -4.945312 5.21875 -4.742188 5.6875 -4.515625 C 6.15625 -4.296875 6.539062 -4.023438 6.84375 -3.703125 C 7.15625 -3.390625 7.3125 -2.960938 7.3125 -2.421875 C 7.3125 -1.753906 7.066406 -1.265625 6.578125 -0.953125 C 6.085938 -0.648438 5.4375 -0.5 4.625 -0.5 C 3.976562 -0.5 3.457031 -0.582031 3.0625 -0.75 C 2.664062 -0.914062 2.363281 -1.117188 2.15625 -1.359375 C 1.957031 -1.597656 1.820312 -1.84375 1.75 -2.09375 C 1.675781 -2.34375 1.632812 -2.554688 1.625 -2.734375 Z M 0.578125 -2.734375 "/></g></g></g><g fill="#edd8a6" fill-opacity="1"><g transform="translate(127.002266, 228.053546)"><g><path d="M 3.265625 -5.390625 L 9.75 -5.390625 L 9.75 0 L 11.15625 0 L 11.15625 -10.828125 L 9.75 -10.828125 L 9.75 -6.09375 L 3.265625 -6.09375 L 3.265625 -10.828125 L 1.859375 -10.828125 L 1.859375 0 L 3.265625 0 Z M 3.265625 -5.390625 "/></g></g></g><g fill="#edd8a6" fill-opacity="1"><g transform="translate(145.101686, 228.053546)"><g><path d="M 0.78125 -5.421875 C 0.78125 -4.835938 0.890625 -4.21875 1.109375 -3.5625 C 1.328125 -2.90625 1.671875 -2.296875 2.140625 -1.734375 C 2.617188 -1.179688 3.222656 -0.722656 3.953125 -0.359375 C 4.691406 0.00390625 5.570312 0.1875 6.59375 0.1875 C 7.28125 0.1875 7.90625 0.101562 8.46875 -0.0625 C 9.03125 -0.238281 9.535156 -0.46875 9.984375 -0.75 C 10.429688 -1.039062 10.816406 -1.375 11.140625 -1.75 C 11.472656 -2.132812 11.742188 -2.535156 11.953125 -2.953125 C 12.171875 -3.367188 12.332031 -3.785156 12.4375 -4.203125 C 12.550781 -4.628906 12.609375 -5.035156 12.609375 -5.421875 C 12.609375 -5.992188 12.488281 -6.609375 12.25 -7.265625 C 12.007812 -7.921875 11.640625 -8.523438 11.140625 -9.078125 C 10.648438 -9.640625 10.023438 -10.101562 9.265625 -10.46875 C 8.515625 -10.832031 7.625 -11.015625 6.59375 -11.015625 C 5.570312 -11.015625 4.691406 -10.832031 3.953125 -10.46875 C 3.222656 -10.113281 2.617188 -9.660156 2.140625 -9.109375 C 1.671875 -8.554688 1.328125 -7.945312 1.109375 -7.28125 C 0.890625 -6.625 0.78125 -6.003906 0.78125 -5.421875 Z M 2.296875 -5.421875 C 2.296875 -6.140625 2.40625 -6.800781 2.625 -7.40625 C 2.84375 -8.007812 3.144531 -8.523438 3.53125 -8.953125 C 3.914062 -9.390625 4.367188 -9.726562 4.890625 -9.96875 C 5.421875 -10.207031 6 -10.328125 6.625 -10.328125 C 7.226562 -10.328125 7.800781 -10.207031 8.34375 -9.96875 C 8.882812 -9.726562 9.359375 -9.390625 9.765625 -8.953125 C 10.171875 -8.523438 10.492188 -8.007812 10.734375 -7.40625 C 10.972656 -6.800781 11.09375 -6.140625 11.09375 -5.421875 C 11.09375 -4.691406 10.972656 -4.023438 10.734375 -3.421875 C 10.492188 -2.816406 10.171875 -2.296875 9.765625 -1.859375 C 9.359375 -1.429688 8.882812 -1.097656 8.34375 -0.859375 C 7.800781 -0.617188 7.226562 -0.5 6.625 -0.5 C 6 -0.5 5.421875 -0.617188 4.890625 -0.859375 C 4.367188 -1.097656 3.914062 -1.429688 3.53125 -1.859375 C 3.144531 -2.296875 2.84375 -2.816406 2.625 -3.421875 C 2.40625 -4.023438 2.296875 -4.691406 2.296875 -5.421875 Z M 2.296875 -5.421875 "/></g></g></g><g fill="#edd8a6" fill-opacity="1"><g transform="translate(163.571992, 228.053546)"><g><path d="M 0.46875 -10.828125 L 4.296875 0 L 5.234375 0 L 8.1875 -8.46875 L 8.265625 -8.46875 L 11.125 0 L 12.03125 0 L 15.875 -10.828125 L 15.15625 -10.828125 L 11.953125 -1.796875 L 11.890625 -1.796875 L 8.875 -10.828125 L 8.21875 -10.828125 L 5.140625 -1.84375 L 5.078125 -1.84375 L 1.890625 -10.828125 Z M 0.46875 -10.828125 "/></g></g></g><g fill="#edd8a6" fill-opacity="1"><g transform="translate(184.993911, 228.053546)"><g/></g></g><g fill="#edd8a6" fill-opacity="1"><g transform="translate(195.505674, 228.053546)"><g><path d="M 0.46875 -10.828125 L 4.203125 -4.09375 L 4.203125 0 L 5.609375 0 L 5.609375 -4.234375 L 9.421875 -10.828125 L 8.578125 -10.828125 L 5.28125 -5.125 L 5.21875 -5.125 L 2.0625 -10.828125 Z M 0.46875 -10.828125 "/></g></g></g><g fill="#edd8a6" fill-opacity="1"><g transform="translate(210.483492, 228.053546)"><g><path d="M 0.78125 -5.421875 C 0.78125 -4.835938 0.890625 -4.21875 1.109375 -3.5625 C 1.328125 -2.90625 1.671875 -2.296875 2.140625 -1.734375 C 2.617188 -1.179688 3.222656 -0.722656 3.953125 -0.359375 C 4.691406 0.00390625 5.570312 0.1875 6.59375 0.1875 C 7.28125 0.1875 7.90625 0.101562 8.46875 -0.0625 C 9.03125 -0.238281 9.535156 -0.46875 9.984375 -0.75 C 10.429688 -1.039062 10.816406 -1.375 11.140625 -1.75 C 11.472656 -2.132812 11.742188 -2.535156 11.953125 -2.953125 C 12.171875 -3.367188 12.332031 -3.785156 12.4375 -4.203125 C 12.550781 -4.628906 12.609375 -5.035156 12.609375 -5.421875 C 12.609375 -5.992188 12.488281 -6.609375 12.25 -7.265625 C 12.007812 -7.921875 11.640625 -8.523438 11.140625 -9.078125 C 10.648438 -9.640625 10.023438 -10.101562 9.265625 -10.46875 C 8.515625 -10.832031 7.625 -11.015625 6.59375 -11.015625 C 5.570312 -11.015625 4.691406 -10.832031 3.953125 -10.46875 C 3.222656 -10.113281 2.617188 -9.660156 2.140625 -9.109375 C 1.671875 -8.554688 1.328125 -7.945312 1.109375 -7.28125 C 0.890625 -6.625 0.78125 -6.003906 0.78125 -5.421875 Z M 2.296875 -5.421875 C 2.296875 -6.140625 2.40625 -6.800781 2.625 -7.40625 C 2.84375 -8.007812 3.144531 -8.523438 3.53125 -8.953125 C 3.914062 -9.390625 4.367188 -9.726562 4.890625 -9.96875 C 5.421875 -10.207031 6 -10.328125 6.625 -10.328125 C 7.226562 -10.328125 7.800781 -10.207031 8.34375 -9.96875 C 8.882812 -9.726562 9.359375 -9.390625 9.765625 -8.953125 C 10.171875 -8.523438 10.492188 -8.007812 10.734375 -7.40625 C 10.972656 -6.800781 11.09375 -6.140625 11.09375 -5.421875 C 11.09375 -4.691406 10.972656 -4.023438 10.734375 -3.421875 C 10.492188 -2.816406 10.171875 -2.296875 9.765625 -1.859375 C 9.359375 -1.429688 8.882812 -1.097656 8.34375 -0.859375 C 7.800781 -0.617188 7.226562 -0.5 6.625 -0.5 C 6 -0.5 5.421875 -0.617188 4.890625 -0.859375 C 4.367188 -1.097656 3.914062 -1.429688 3.53125 -1.859375 C 3.144531 -2.296875 2.84375 -2.816406 2.625 -3.421875 C 2.40625 -4.023438 2.296875 -4.691406 2.296875 -5.421875 Z M 2.296875 -5.421875 "/></g></g></g><g fill="#edd8a6" fill-opacity="1"><g transform="translate(228.953794, 228.053546)"><g><path d="M 1.234375 -10.828125 L 1.234375 -4.171875 C 1.234375 -3.753906 1.273438 -3.289062 1.359375 -2.78125 C 1.441406 -2.269531 1.632812 -1.796875 1.9375 -1.359375 C 2.25 -0.921875 2.707031 -0.550781 3.3125 -0.25 C 3.925781 0.0390625 4.757812 0.1875 5.8125 0.1875 C 6.476562 0.1875 7.066406 0.0820312 7.578125 -0.125 C 8.085938 -0.332031 8.515625 -0.613281 8.859375 -0.96875 C 9.203125 -1.332031 9.460938 -1.753906 9.640625 -2.234375 C 9.816406 -2.710938 9.90625 -3.226562 9.90625 -3.78125 L 9.90625 -10.828125 L 9.21875 -10.828125 L 9.21875 -4.28125 C 9.21875 -4.050781 9.210938 -3.820312 9.203125 -3.59375 C 9.191406 -3.363281 9.160156 -3.128906 9.109375 -2.890625 C 9.054688 -2.660156 8.972656 -2.429688 8.859375 -2.203125 C 8.753906 -1.984375 8.601562 -1.757812 8.40625 -1.53125 C 8.03125 -1.125 7.609375 -0.847656 7.140625 -0.703125 C 6.679688 -0.566406 6.195312 -0.5 5.6875 -0.5 C 5.257812 -0.5 4.875 -0.5625 4.53125 -0.6875 C 4.195312 -0.820312 3.882812 -1.023438 3.59375 -1.296875 C 3.351562 -1.503906 3.171875 -1.710938 3.046875 -1.921875 C 2.921875 -2.128906 2.828125 -2.332031 2.765625 -2.53125 C 2.703125 -2.726562 2.664062 -2.929688 2.65625 -3.140625 C 2.644531 -3.347656 2.640625 -3.554688 2.640625 -3.765625 L 2.640625 -10.828125 Z M 1.234375 -10.828125 "/></g></g></g><g fill="#edd8a6" fill-opacity="1"><g transform="translate(245.183343, 228.053546)"><g><path d="M 1.859375 -10.828125 L 1.859375 0 L 3.265625 0 L 3.265625 -4.78125 L 3.9375 -4.78125 C 4.226562 -4.78125 4.46875 -4.753906 4.65625 -4.703125 C 4.851562 -4.648438 5.03125 -4.5625 5.1875 -4.4375 C 5.34375 -4.3125 5.484375 -4.148438 5.609375 -3.953125 C 5.742188 -3.765625 5.90625 -3.523438 6.09375 -3.234375 L 7.3125 -1.421875 C 7.46875 -1.179688 7.617188 -0.960938 7.765625 -0.765625 C 7.921875 -0.578125 8.082031 -0.410156 8.25 -0.265625 C 8.425781 -0.128906 8.625 -0.0195312 8.84375 0.0625 C 9.070312 0.144531 9.34375 0.1875 9.65625 0.1875 C 9.882812 0.1875 10.066406 0.175781 10.203125 0.15625 C 10.347656 0.132812 10.492188 0.0820312 10.640625 0 L 10.640625 -0.578125 C 10.585938 -0.566406 10.535156 -0.554688 10.484375 -0.546875 C 10.429688 -0.546875 10.378906 -0.546875 10.328125 -0.546875 C 10.117188 -0.546875 9.929688 -0.578125 9.765625 -0.640625 C 9.597656 -0.703125 9.441406 -0.789062 9.296875 -0.90625 C 9.148438 -1.019531 9.007812 -1.160156 8.875 -1.328125 C 8.738281 -1.503906 8.601562 -1.703125 8.46875 -1.921875 C 8.03125 -2.546875 7.691406 -3.046875 7.453125 -3.421875 C 7.210938 -3.796875 7.023438 -4.085938 6.890625 -4.296875 C 6.753906 -4.503906 6.640625 -4.65625 6.546875 -4.75 C 6.460938 -4.84375 6.359375 -4.921875 6.234375 -4.984375 L 6.078125 -5.0625 L 6.078125 -5.125 C 6.578125 -5.15625 7.003906 -5.257812 7.359375 -5.4375 C 7.710938 -5.625 8 -5.859375 8.21875 -6.140625 C 8.445312 -6.421875 8.613281 -6.722656 8.71875 -7.046875 C 8.820312 -7.367188 8.875 -7.6875 8.875 -8 C 8.875 -8.28125 8.816406 -8.582031 8.703125 -8.90625 C 8.597656 -9.238281 8.414062 -9.546875 8.15625 -9.828125 C 7.894531 -10.109375 7.535156 -10.34375 7.078125 -10.53125 C 6.628906 -10.726562 6.0625 -10.828125 5.375 -10.828125 Z M 3.265625 -10.140625 L 4.828125 -10.140625 C 5.222656 -10.140625 5.578125 -10.082031 5.890625 -9.96875 C 6.203125 -9.863281 6.46875 -9.707031 6.6875 -9.5 C 6.914062 -9.300781 7.085938 -9.0625 7.203125 -8.78125 C 7.328125 -8.507812 7.390625 -8.207031 7.390625 -7.875 C 7.390625 -7.59375 7.332031 -7.3125 7.21875 -7.03125 C 7.113281 -6.75 6.953125 -6.488281 6.734375 -6.25 C 6.523438 -6.019531 6.257812 -5.832031 5.9375 -5.6875 C 5.625 -5.539062 5.265625 -5.46875 4.859375 -5.46875 L 3.265625 -5.46875 Z M 3.265625 -10.140625 "/></g></g></g><g fill="#edd8a6" fill-opacity="1"><g transform="translate(261.381996, 228.053546)"><g/></g></g><g fill="#edd8a6" fill-opacity="1"><g transform="translate(271.893767, 228.053546)"><g><path d="M 1.859375 -10.828125 L 1.859375 0 L 3.265625 0 L 3.265625 -5.390625 L 8.0625 -5.390625 L 8.0625 -6.09375 L 3.265625 -6.09375 L 3.265625 -9.984375 L 8.84375 -9.984375 L 8.84375 -10.828125 Z M 1.859375 -10.828125 "/></g></g></g><g fill="#edd8a6" fill-opacity="1"><g transform="translate(286.299808, 228.053546)"><g><path d="M 1.234375 -10.828125 L 1.234375 -4.171875 C 1.234375 -3.753906 1.273438 -3.289062 1.359375 -2.78125 C 1.441406 -2.269531 1.632812 -1.796875 1.9375 -1.359375 C 2.25 -0.921875 2.707031 -0.550781 3.3125 -0.25 C 3.925781 0.0390625 4.757812 0.1875 5.8125 0.1875 C 6.476562 0.1875 7.066406 0.0820312 7.578125 -0.125 C 8.085938 -0.332031 8.515625 -0.613281 8.859375 -0.96875 C 9.203125 -1.332031 9.460938 -1.753906 9.640625 -2.234375 C 9.816406 -2.710938 9.90625 -3.226562 9.90625 -3.78125 L 9.90625 -10.828125 L 9.21875 -10.828125 L 9.21875 -4.28125 C 9.21875 -4.050781 9.210938 -3.820312 9.203125 -3.59375 C 9.191406 -3.363281 9.160156 -3.128906 9.109375 -2.890625 C 9.054688 -2.660156 8.972656 -2.429688 8.859375 -2.203125 C 8.753906 -1.984375 8.601562 -1.757812 8.40625 -1.53125 C 8.03125 -1.125 7.609375 -0.847656 7.140625 -0.703125 C 6.679688 -0.566406 6.195312 -0.5 5.6875 -0.5 C 5.257812 -0.5 4.875 -0.5625 4.53125 -0.6875 C 4.195312 -0.820312 3.882812 -1.023438 3.59375 -1.296875 C 3.351562 -1.503906 3.171875 -1.710938 3.046875 -1.921875 C 2.921875 -2.128906 2.828125 -2.332031 2.765625 -2.53125 C 2.703125 -2.726562 2.664062 -2.929688 2.65625 -3.140625 C 2.644531 -3.347656 2.640625 -3.554688 2.640625 -3.765625 L 2.640625 -10.828125 Z M 1.234375 -10.828125 "/></g></g></g><g fill="#edd8a6" fill-opacity="1"><g transform="translate(302.529365, 228.053546)"><g><path d="M 5.859375 0 L 5.859375 -9.984375 L 10.015625 -9.984375 L 10.015625 -10.828125 L 0.3125 -10.828125 L 0.3125 -9.984375 L 4.453125 -9.984375 L 4.453125 0 Z M 5.859375 0 "/></g></g></g><g fill="#edd8a6" fill-opacity="1"><g transform="translate(317.939889, 228.053546)"><g><path d="M 1.234375 -10.828125 L 1.234375 -4.171875 C 1.234375 -3.753906 1.273438 -3.289062 1.359375 -2.78125 C 1.441406 -2.269531 1.632812 -1.796875 1.9375 -1.359375 C 2.25 -0.921875 2.707031 -0.550781 3.3125 -0.25 C 3.925781 0.0390625 4.757812 0.1875 5.8125 0.1875 C 6.476562 0.1875 7.066406 0.0820312 7.578125 -0.125 C 8.085938 -0.332031 8.515625 -0.613281 8.859375 -0.96875 C 9.203125 -1.332031 9.460938 -1.753906 9.640625 -2.234375 C 9.816406 -2.710938 9.90625 -3.226562 9.90625 -3.78125 L 9.90625 -10.828125 L 9.21875 -10.828125 L 9.21875 -4.28125 C 9.21875 -4.050781 9.210938 -3.820312 9.203125 -3.59375 C 9.191406 -3.363281 9.160156 -3.128906 9.109375 -2.890625 C 9.054688 -2.660156 8.972656 -2.429688 8.859375 -2.203125 C 8.753906 -1.984375 8.601562 -1.757812 8.40625 -1.53125 C 8.03125 -1.125 7.609375 -0.847656 7.140625 -0.703125 C 6.679688 -0.566406 6.195312 -0.5 5.6875 -0.5 C 5.257812 -0.5 4.875 -0.5625 4.53125 -0.6875 C 4.195312 -0.820312 3.882812 -1.023438 3.59375 -1.296875 C 3.351562 -1.503906 3.171875 -1.710938 3.046875 -1.921875 C 2.921875 -2.128906 2.828125 -2.332031 2.765625 -2.53125 C 2.703125 -2.726562 2.664062 -2.929688 2.65625 -3.140625 C 2.644531 -3.347656 2.640625 -3.554688 2.640625 -3.765625 L 2.640625 -10.828125 Z M 1.234375 -10.828125 "/></g></g></g><g fill="#edd8a6" fill-opacity="1"><g transform="translate(334.169446, 228.053546)"><g><path d="M 1.859375 -10.828125 L 1.859375 0 L 3.265625 0 L 3.265625 -4.78125 L 3.9375 -4.78125 C 4.226562 -4.78125 4.46875 -4.753906 4.65625 -4.703125 C 4.851562 -4.648438 5.03125 -4.5625 5.1875 -4.4375 C 5.34375 -4.3125 5.484375 -4.148438 5.609375 -3.953125 C 5.742188 -3.765625 5.90625 -3.523438 6.09375 -3.234375 L 7.3125 -1.421875 C 7.46875 -1.179688 7.617188 -0.960938 7.765625 -0.765625 C 7.921875 -0.578125 8.082031 -0.410156 8.25 -0.265625 C 8.425781 -0.128906 8.625 -0.0195312 8.84375 0.0625 C 9.070312 0.144531 9.34375 0.1875 9.65625 0.1875 C 9.882812 0.1875 10.066406 0.175781 10.203125 0.15625 C 10.347656 0.132812 10.492188 0.0820312 10.640625 0 L 10.640625 -0.578125 C 10.585938 -0.566406 10.535156 -0.554688 10.484375 -0.546875 C 10.429688 -0.546875 10.378906 -0.546875 10.328125 -0.546875 C 10.117188 -0.546875 9.929688 -0.578125 9.765625 -0.640625 C 9.597656 -0.703125 9.441406 -0.789062 9.296875 -0.90625 C 9.148438 -1.019531 9.007812 -1.160156 8.875 -1.328125 C 8.738281 -1.503906 8.601562 -1.703125 8.46875 -1.921875 C 8.03125 -2.546875 7.691406 -3.046875 7.453125 -3.421875 C 7.210938 -3.796875 7.023438 -4.085938 6.890625 -4.296875 C 6.753906 -4.503906 6.640625 -4.65625 6.546875 -4.75 C 6.460938 -4.84375 6.359375 -4.921875 6.234375 -4.984375 L 6.078125 -5.0625 L 6.078125 -5.125 C 6.578125 -5.15625 7.003906 -5.257812 7.359375 -5.4375 C 7.710938 -5.625 8 -5.859375 8.21875 -6.140625 C 8.445312 -6.421875 8.613281 -6.722656 8.71875 -7.046875 C 8.820312 -7.367188 8.875 -7.6875 8.875 -8 C 8.875 -8.28125 8.816406 -8.582031 8.703125 -8.90625 C 8.597656 -9.238281 8.414062 -9.546875 8.15625 -9.828125 C 7.894531 -10.109375 7.535156 -10.34375 7.078125 -10.53125 C 6.628906 -10.726562 6.0625 -10.828125 5.375 -10.828125 Z M 3.265625 -10.140625 L 4.828125 -10.140625 C 5.222656 -10.140625 5.578125 -10.082031 5.890625 -9.96875 C 6.203125 -9.863281 6.46875 -9.707031 6.6875 -9.5 C 6.914062 -9.300781 7.085938 -9.0625 7.203125 -8.78125 C 7.328125 -8.507812 7.390625 -8.207031 7.390625 -7.875 C 7.390625 -7.59375 7.332031 -7.3125 7.21875 -7.03125 C 7.113281 -6.75 6.953125 -6.488281 6.734375 -6.25 C 6.523438 -6.019531 6.257812 -5.832031 5.9375 -5.6875 C 5.625 -5.539062 5.265625 -5.46875 4.859375 -5.46875 L 3.265625 -5.46875 Z M 3.265625 -10.140625 "/></g></g></g><g fill="#edd8a6" fill-opacity="1"><g transform="translate(350.3681, 228.053546)"><g><path d="M 1.859375 -10.828125 L 1.859375 0 L 8.84375 0 L 8.84375 -0.84375 L 3.265625 -0.84375 L 3.265625 -5.390625 L 8.0625 -5.390625 L 8.0625 -6.09375 L 3.265625 -6.09375 L 3.265625 -9.984375 L 8.84375 -9.984375 L 8.84375 -10.828125 Z M 1.859375 -10.828125 "/></g></g></g><g fill="#edd8a6" fill-opacity="1"><g transform="translate(142.873314, 249.458574)"><g><path d="M 7.875 -3.1875 L 9.359375 0 L 10.859375 0 L 5.8125 -10.828125 L 5.046875 -10.828125 L 0.46875 0 L 1.171875 0 L 2.53125 -3.1875 Z M 7.546875 -3.875 L 2.828125 -3.875 L 5.0625 -9.09375 L 5.125 -9.09375 Z M 7.546875 -3.875 "/></g></g></g><g fill="#edd8a6" fill-opacity="1"><g transform="translate(159.288307, 249.458574)"><g><path d="M 10.96875 -2 C 9.914062 -1.007812 8.664062 -0.515625 7.21875 -0.515625 C 6.414062 -0.515625 5.703125 -0.648438 5.078125 -0.921875 C 4.460938 -1.203125 3.945312 -1.570312 3.53125 -2.03125 C 3.125 -2.5 2.816406 -3.035156 2.609375 -3.640625 C 2.398438 -4.253906 2.296875 -4.890625 2.296875 -5.546875 C 2.296875 -6.253906 2.40625 -6.898438 2.625 -7.484375 C 2.84375 -8.066406 3.148438 -8.566406 3.546875 -8.984375 C 3.953125 -9.410156 4.429688 -9.738281 4.984375 -9.96875 C 5.535156 -10.207031 6.140625 -10.328125 6.796875 -10.328125 C 7.234375 -10.328125 7.632812 -10.273438 8 -10.171875 C 8.363281 -10.078125 8.6875 -9.945312 8.96875 -9.78125 C 9.257812 -9.613281 9.492188 -9.421875 9.671875 -9.203125 C 9.859375 -8.992188 9.988281 -8.78125 10.0625 -8.5625 L 11.203125 -8.5625 C 11.046875 -8.914062 10.84375 -9.242188 10.59375 -9.546875 C 10.351562 -9.847656 10.050781 -10.101562 9.6875 -10.3125 C 9.332031 -10.53125 8.910156 -10.703125 8.421875 -10.828125 C 7.941406 -10.953125 7.394531 -11.015625 6.78125 -11.015625 C 5.875 -11.015625 5.050781 -10.882812 4.3125 -10.625 C 3.582031 -10.363281 2.953125 -9.992188 2.421875 -9.515625 C 1.898438 -9.035156 1.492188 -8.457031 1.203125 -7.78125 C 0.921875 -7.113281 0.78125 -6.359375 0.78125 -5.515625 C 0.78125 -4.796875 0.894531 -4.09375 1.125 -3.40625 C 1.351562 -2.71875 1.707031 -2.109375 2.1875 -1.578125 C 2.675781 -1.046875 3.296875 -0.617188 4.046875 -0.296875 C 4.804688 0.0234375 5.707031 0.1875 6.75 0.1875 C 7.40625 0.1875 7.992188 0.125 8.515625 0 C 9.035156 -0.125 9.488281 -0.273438 9.875 -0.453125 C 10.257812 -0.640625 10.582031 -0.832031 10.84375 -1.03125 C 11.101562 -1.238281 11.300781 -1.421875 11.4375 -1.578125 Z M 10.96875 -2 "/></g></g></g><g fill="#edd8a6" fill-opacity="1"><g transform="translate(176.120545, 249.458574)"><g><path d="M 3.265625 -5.390625 L 9.75 -5.390625 L 9.75 0 L 11.15625 0 L 11.15625 -10.828125 L 9.75 -10.828125 L 9.75 -6.09375 L 3.265625 -6.09375 L 3.265625 -10.828125 L 1.859375 -10.828125 L 1.859375 0 L 3.265625 0 Z M 3.265625 -5.390625 "/></g></g></g><g fill="#edd8a6" fill-opacity="1"><g transform="translate(194.219967, 249.458574)"><g><path d="M 2.46875 -10.828125 L 2.46875 0 L 3.875 0 L 3.875 -10.828125 Z M 2.46875 -10.828125 "/></g></g></g><g fill="#edd8a6" fill-opacity="1"><g transform="translate(205.67439, 249.458574)"><g><path d="M 1.859375 -10.828125 L 1.859375 0 L 8.84375 0 L 8.84375 -0.84375 L 3.265625 -0.84375 L 3.265625 -5.390625 L 8.0625 -5.390625 L 8.0625 -6.09375 L 3.265625 -6.09375 L 3.265625 -9.984375 L 8.84375 -9.984375 L 8.84375 -10.828125 Z M 1.859375 -10.828125 "/></g></g></g><g fill="#edd8a6" fill-opacity="1"><g transform="translate(220.080431, 249.458574)"><g><path d="M 0.46875 -10.828125 L 5 0 L 5.921875 0 L 10.3125 -10.828125 L 9.515625 -10.828125 L 5.90625 -1.921875 L 5.84375 -1.921875 L 2.140625 -10.828125 Z M 0.46875 -10.828125 "/></g></g></g><g fill="#edd8a6" fill-opacity="1"><g transform="translate(235.954547, 249.458574)"><g><path d="M 1.859375 -10.828125 L 1.859375 0 L 8.84375 0 L 8.84375 -0.84375 L 3.265625 -0.84375 L 3.265625 -5.390625 L 8.0625 -5.390625 L 8.0625 -6.09375 L 3.265625 -6.09375 L 3.265625 -9.984375 L 8.84375 -9.984375 L 8.84375 -10.828125 Z M 1.859375 -10.828125 "/></g></g></g><g fill="#edd8a6" fill-opacity="1"><g transform="translate(250.360588, 249.458574)"><g><path d="M 2.90625 -10.828125 L 1.859375 -10.828125 L 1.859375 0 L 2.53125 0 L 2.53125 -8.828125 L 2.59375 -8.828125 L 7.375 0.1875 L 7.65625 0.1875 L 12.546875 -8.765625 L 12.609375 -8.765625 L 12.609375 0 L 14.015625 0 L 14.015625 -10.828125 L 12.953125 -10.828125 L 7.9375 -1.53125 L 7.875 -1.53125 Z M 2.90625 -10.828125 "/></g></g></g><g fill="#edd8a6" fill-opacity="1"><g transform="translate(271.318907, 249.458574)"><g><path d="M 1.859375 -10.828125 L 1.859375 0 L 8.84375 0 L 8.84375 -0.84375 L 3.265625 -0.84375 L 3.265625 -5.390625 L 8.0625 -5.390625 L 8.0625 -6.09375 L 3.265625 -6.09375 L 3.265625 -9.984375 L 8.84375 -9.984375 L 8.84375 -10.828125 Z M 1.859375 -10.828125 "/></g></g></g><g fill="#edd8a6" fill-opacity="1"><g transform="translate(285.724948, 249.458574)"><g><path d="M 10.578125 -10.828125 L 10.578125 -2.546875 L 10.515625 -2.546875 L 1.9375 -11.015625 L 1.859375 -11.015625 L 1.859375 0 L 2.5625 0 L 2.5625 -8.28125 L 2.625 -8.28125 L 11.21875 0.1875 L 11.296875 0.1875 L 11.296875 -10.828125 Z M 10.578125 -10.828125 "/></g></g></g><g fill="#edd8a6" fill-opacity="1"><g transform="translate(303.963454, 249.458574)"><g><path d="M 5.859375 0 L 5.859375 -9.984375 L 10.015625 -9.984375 L 10.015625 -10.828125 L 0.3125 -10.828125 L 0.3125 -9.984375 L 4.453125 -9.984375 L 4.453125 0 Z M 5.859375 0 "/></g></g></g><g fill="#edd8a6" fill-opacity="1"><g transform="translate(319.373978, 249.458574)"><g><path d="M 0.578125 -2.734375 C 0.597656 -2.296875 0.710938 -1.894531 0.921875 -1.53125 C 1.128906 -1.164062 1.414062 -0.859375 1.78125 -0.609375 C 2.144531 -0.359375 2.578125 -0.160156 3.078125 -0.015625 C 3.578125 0.117188 4.117188 0.1875 4.703125 0.1875 C 5.296875 0.1875 5.832031 0.113281 6.3125 -0.03125 C 6.789062 -0.175781 7.203125 -0.378906 7.546875 -0.640625 C 7.890625 -0.910156 8.148438 -1.238281 8.328125 -1.625 C 8.515625 -2.007812 8.609375 -2.429688 8.609375 -2.890625 C 8.609375 -3.535156 8.445312 -4.0625 8.125 -4.46875 C 7.8125 -4.875 7.414062 -5.210938 6.9375 -5.484375 C 6.457031 -5.753906 5.9375 -5.984375 5.375 -6.171875 C 4.8125 -6.359375 4.289062 -6.550781 3.8125 -6.75 C 3.332031 -6.957031 2.929688 -7.195312 2.609375 -7.46875 C 2.296875 -7.738281 2.140625 -8.09375 2.140625 -8.53125 C 2.140625 -8.78125 2.191406 -9.015625 2.296875 -9.234375 C 2.398438 -9.453125 2.554688 -9.640625 2.765625 -9.796875 C 2.984375 -9.960938 3.242188 -10.09375 3.546875 -10.1875 C 3.859375 -10.28125 4.21875 -10.328125 4.625 -10.328125 C 5.289062 -10.328125 5.859375 -10.1875 6.328125 -9.90625 C 6.796875 -9.625 7.070312 -9.175781 7.15625 -8.5625 L 8.21875 -8.5625 C 8.15625 -8.945312 8.015625 -9.289062 7.796875 -9.59375 C 7.578125 -9.90625 7.300781 -10.164062 6.96875 -10.375 C 6.644531 -10.582031 6.273438 -10.738281 5.859375 -10.84375 C 5.441406 -10.957031 5.003906 -11.015625 4.546875 -11.015625 C 4.078125 -11.015625 3.625 -10.953125 3.1875 -10.828125 C 2.757812 -10.703125 2.382812 -10.519531 2.0625 -10.28125 C 1.738281 -10.050781 1.476562 -9.753906 1.28125 -9.390625 C 1.09375 -9.023438 1 -8.613281 1 -8.15625 C 1 -7.539062 1.15625 -7.046875 1.46875 -6.671875 C 1.78125 -6.304688 2.171875 -6 2.640625 -5.75 C 3.109375 -5.507812 3.613281 -5.300781 4.15625 -5.125 C 4.707031 -4.945312 5.21875 -4.742188 5.6875 -4.515625 C 6.15625 -4.296875 6.539062 -4.023438 6.84375 -3.703125 C 7.15625 -3.390625 7.3125 -2.960938 7.3125 -2.421875 C 7.3125 -1.753906 7.066406 -1.265625 6.578125 -0.953125 C 6.085938 -0.648438 5.4375 -0.5 4.625 -0.5 C 3.976562 -0.5 3.457031 -0.582031 3.0625 -0.75 C 2.664062 -0.914062 2.363281 -1.117188 2.15625 -1.359375 C 1.957031 -1.597656 1.820312 -1.84375 1.75 -2.09375 C 1.675781 -2.34375 1.632812 -2.554688 1.625 -2.734375 Z M 0.578125 -2.734375 "/></g></g></g></svg>